<svg xmlns='http://www.w3.org/2000/svg' viewBox='0 0 1180 640' width='1180' height='640'><rect x='0' y='0' width='1180' height='640' rx='0' fill='#ffffff'/><rect x='0' y='0' width='1180' height='64' rx='0' fill='#ffffff'/><line x1='0' y1='64' x2='1180' y2='64' stroke='#e5e7eb'/><g stroke='#2563eb' stroke-width='2' stroke-linecap='round'><line x1='106' y1='27' x2='130' y2='27'/><line x1='106' y1='33' x2='130' y2='33'/><line x1='106' y1='39' x2='122' y2='39'/></g><rect x='744' y='17' width='300' height='32' rx='16' fill='#ffffff' stroke='#e5e7eb' stroke-width='1'/><circle cx='766' cy='31' r='6' fill='none' stroke='#9ca3af' stroke-width='1.6'/><line x1='770' y1='35' x2='774' y2='39' stroke='#9ca3af' stroke-width='1.6'/><text x='784' y='37' font-size='13' fill='#9ca3af' font-weight='normal' text-anchor='start' font-family='Geist,Inter,-apple-system,Helvetica,Arial,sans-serif'>Search</text><circle cx='1084' cy='33' r='11' fill='none' stroke='#6b7280' stroke-width='1.4'/><text x='1084' y='38' font-size='12' fill='#6b7280' font-weight='bold' text-anchor='middle' font-family='Geist,Inter,-apple-system,Helvetica,Arial,sans-serif'>?</text><path d='M1126 27a5.5 5.5 0 0 1 11 0c0 6 2 7 2 7h-15s2-1 2-7z' fill='none' stroke='#6b7280' stroke-width='1.5'/><circle cx='1137' cy='25' r='3' fill='#ff4f1a'/><rect x='0' y='0' width='72' height='640' rx='0' fill='#ffffff'/><line x1='72' y1='0' x2='72' y2='640' stroke='#e5e7eb'/><g stroke='#1f7a5c' stroke-width='2.4' stroke-linecap='round'><line x1='36.0' y1='34' x2='48.0' y2='34.0'/><line x1='36.0' y1='34' x2='44.5' y2='42.5'/><line x1='36.0' y1='34' x2='36.0' y2='46.0'/><line x1='36.0' y1='34' x2='27.5' y2='42.5'/><line x1='36.0' y1='34' x2='24.0' y2='34.0'/><line x1='36.0' y1='34' x2='27.5' y2='25.5'/><line x1='36.0' y1='34' x2='36.0' y2='22.0'/><line x1='36.0' y1='34' x2='44.5' y2='25.5'/></g><circle cx='36.0' cy='34' r='3.4' fill='#1f7a5c'/><g transform='translate(25.0,82) scale(0.9)' fill='none' stroke='#64748b' stroke-width='1.8' stroke-linecap='round' stroke-linejoin='round'><line x1="6" y1="20" x2="6" y2="13"/><line x1="12" y1="20" x2="12" y2="4"/><line x1="18" y1="20" x2="18" y2="9"/></g><g transform='translate(25.0,134) scale(0.9)' fill='none' stroke='#64748b' stroke-width='1.8' stroke-linecap='round' stroke-linejoin='round'><path d="M8 4H6a2 2 0 0 0-2 2v14a2 2 0 0 0 2 2h12a2 2 0 0 0 2-2V6a2 2 0 0 0-2-2h-2"/><rect x="8" y="2" width="8" height="4" rx="1"/><line x1="9" y1="12" x2="15" y2="12"/><line x1="9" y1="16" x2="13" y2="16"/></g><g transform='translate(25.0,186) scale(0.9)' fill='none' stroke='#64748b' stroke-width='1.8' stroke-linecap='round' stroke-linejoin='round'><rect x="9" y="2" width="6" height="5" rx="1"/><rect x="2" y="16" width="6" height="5" rx="1"/><rect x="16" y="16" width="6" height="5" rx="1"/><path d="M12 7v4M5 16v-3h14v3"/></g><g transform='translate(25.0,238) scale(0.9)' fill='none' stroke='#64748b' stroke-width='1.8' stroke-linecap='round' stroke-linejoin='round'><path d="M21 15a2 2 0 0 1-2 2H7l-4 4V5a2 2 0 0 1 2-2h14a2 2 0 0 1 2 2z"/><line x1="8" y1="9" x2="16" y2="9"/><line x1="8" y1="13" x2="13" y2="13"/></g><rect x='18.0' y='285' width='36' height='36' rx='9' fill='#eff4ff'/><g transform='translate(25.0,290) scale(0.9)' fill='none' stroke='#2563eb' stroke-width='1.8' stroke-linecap='round' stroke-linejoin='round'><path d="M8 22h8M12 15v7M6 3h12l-1.4 7.2a4.7 4.7 0 0 1-9.2 0z"/></g><g transform='translate(25.0,342) scale(0.9)' fill='none' stroke='#64748b' stroke-width='1.8' stroke-linecap='round' stroke-linejoin='round'><path d="M3 9a3 3 0 0 1 0 6v2a2 2 0 0 0 2 2h14a2 2 0 0 0 2-2v-2a3 3 0 0 1 0-6V7a2 2 0 0 0-2-2H5a2 2 0 0 0-2 2z"/><line x1="14" y1="5" x2="14" y2="19" stroke-dasharray="2 2"/></g><g transform='translate(25.0,394) scale(0.9)' fill='none' stroke='#64748b' stroke-width='1.8' stroke-linecap='round' stroke-linejoin='round'><rect x="3" y="4" width="18" height="18" rx="2"/><line x1="16" y1="2" x2="16" y2="6"/><line x1="8" y1="2" x2="8" y2="6"/><line x1="3" y1="10" x2="21" y2="10"/><line x1="12" y1="13" x2="12" y2="17"/><line x1="10" y1="15" x2="14" y2="15"/></g><g transform='translate(25.0,446) scale(0.9)' fill='none' stroke='#64748b' stroke-width='1.8' stroke-linecap='round' stroke-linejoin='round'><rect x="2" y="4" width="20" height="14" rx="2"/><path d="M2 15l5-4 4 3 3-2 6 5"/><circle cx="8" cy="9" r="1.3"/><line x1="8" y1="21" x2="16" y2="21"/></g><g transform='translate(25.0,498) scale(0.9)' fill='none' stroke='#64748b' stroke-width='1.8' stroke-linecap='round' stroke-linejoin='round'><line x1="4" y1="21" x2="4" y2="14"/><line x1="4" y1="10" x2="4" y2="3"/><line x1="12" y1="21" x2="12" y2="12"/><line x1="12" y1="8" x2="12" y2="3"/><line x1="20" y1="21" x2="20" y2="16"/><line x1="20" y1="12" x2="20" y2="3"/><line x1="1" y1="14" x2="7" y2="14"/><line x1="9" y1="8" x2="15" y2="8"/><line x1="17" y1="16" x2="23" y2="16"/></g><circle cx='36.0' cy='608' r='16' fill='#f1f5f9'/><text x='36.0' y='612' font-size='11' fill='#6b7280' font-weight='bold' text-anchor='middle' font-family='Geist,Inter,-apple-system,Helvetica,Arial,sans-serif'>PT</text><path d='M114 100 l-7 7 l7 7' fill='none' stroke='#111827' stroke-width='2' stroke-linecap='round' stroke-linejoin='round'/><text x='136' y='113' font-size='19' fill='#111827' font-weight='bold' text-anchor='start' font-family='Geist,Inter,-apple-system,Helvetica,Arial,sans-serif'>Add Contract For Event Inquiry</text><line x1='112' y1='168' x2='1150' y2='168' stroke='#e5e7eb'/><text x='112' y='158' font-size='16' fill='#111827' font-weight='bold' text-anchor='start' font-family='Geist,Inter,-apple-system,Helvetica,Arial,sans-serif'>Grand Total</text><text x='1150' y='158' font-size='17' fill='#111827' font-weight='bold' text-anchor='end' font-family='Geist,Inter,-apple-system,Helvetica,Arial,sans-serif'>$3,582.29</text><rect x='112' y='190' width='20' height='20' rx='4' fill='#2563eb'/><path d='M117 200 l4 4 l7 -8' fill='none' stroke='#fff' stroke-width='2' stroke-linecap='round' stroke-linejoin='round'/><text x='144' y='205' font-size='14' fill='#111827' font-weight='bold' text-anchor='start' font-family='Geist,Inter,-apple-system,Helvetica,Arial,sans-serif'>Create Deposit Link</text><text x='112' y='232' font-size='11.5' fill='#6b7280' font-weight='normal' text-anchor='start' font-family='Geist,Inter,-apple-system,Helvetica,Arial,sans-serif'>Deposit Title</text><text x='196.60000000000002' y='232' font-size='12' fill='#ff4f1a' font-weight='bold' text-anchor='start' font-family='Geist,Inter,-apple-system,Helvetica,Arial,sans-serif'>*</text><rect x='112' y='241' width='507.0' height='38' rx='8' fill='#ffffff' stroke='#e5e7eb' stroke-width='1'/><text x='125' y='265' font-size='12.5' fill='#111827' font-weight='normal' text-anchor='start' font-family='Geist,Inter,-apple-system,Helvetica,Arial,sans-serif'>Deposit</text><text x='643.0' y='232' font-size='11.5' fill='#6b7280' font-weight='normal' text-anchor='start' font-family='Geist,Inter,-apple-system,Helvetica,Arial,sans-serif'>Description</text><rect x='643.0' y='241' width='507.0' height='38' rx='8' fill='#ffffff' stroke='#e5e7eb' stroke-width='1'/><text x='656.0' y='265' font-size='12.5' fill='#9ca3af' font-weight='normal' text-anchor='start' font-family='Geist,Inter,-apple-system,Helvetica,Arial,sans-serif'>Add a note</text><text x='112' y='300' font-size='11.5' fill='#6b7280' font-weight='normal' text-anchor='start' font-family='Geist,Inter,-apple-system,Helvetica,Arial,sans-serif'>Deposit Type</text><rect x='112' y='309' width='507.0' height='38' rx='8' fill='#ffffff' stroke='#e5e7eb' stroke-width='1'/><text x='125' y='333' font-size='12.5' fill='#111827' font-weight='normal' text-anchor='start' font-family='Geist,Inter,-apple-system,Helvetica,Arial,sans-serif'>Percentage</text><path d='M595.0 323 l5 5 l5 -5' fill='none' stroke='#6b7280' stroke-width='1.5' stroke-linecap='round' stroke-linejoin='round'/><text x='643.0' y='300' font-size='11.5' fill='#6b7280' font-weight='normal' text-anchor='start' font-family='Geist,Inter,-apple-system,Helvetica,Arial,sans-serif'>Percentage</text><rect x='643.0' y='309' width='507.0' height='38' rx='8' fill='#ffffff' stroke='#e5e7eb' stroke-width='1'/><text x='656.0' y='333' font-size='12.5' fill='#111827' font-weight='normal' text-anchor='start' font-family='Geist,Inter,-apple-system,Helvetica,Arial,sans-serif'>25</text><text x='112' y='368' font-size='11.5' fill='#6b7280' font-weight='normal' text-anchor='start' font-family='Geist,Inter,-apple-system,Helvetica,Arial,sans-serif'>Amount</text><text x='153.2' y='368' font-size='12' fill='#ff4f1a' font-weight='bold' text-anchor='start' font-family='Geist,Inter,-apple-system,Helvetica,Arial,sans-serif'>*</text><rect x='112' y='377' width='507.0' height='38' rx='8' fill='#ffffff' stroke='#e5e7eb' stroke-width='1'/><text x='125' y='401' font-size='12.5' fill='#111827' font-weight='normal' text-anchor='start' font-family='Geist,Inter,-apple-system,Helvetica,Arial,sans-serif'>$895.57</text><text x='643.0' y='368' font-size='11.5' fill='#6b7280' font-weight='normal' text-anchor='start' font-family='Geist,Inter,-apple-system,Helvetica,Arial,sans-serif'>Due Date</text><text x='696.6' y='368' font-size='12' fill='#ff4f1a' font-weight='bold' text-anchor='start' font-family='Geist,Inter,-apple-system,Helvetica,Arial,sans-serif'>*</text><rect x='643.0' y='377' width='507.0' height='38' rx='8' fill='#ffffff' stroke='#e5e7eb' stroke-width='1'/><text x='656.0' y='401' font-size='12.5' fill='#111827' font-weight='normal' text-anchor='start' font-family='Geist,Inter,-apple-system,Helvetica,Arial,sans-serif'>09-15-2026</text><rect x='0' y='586' width='1180' height='54' rx='0' fill='#ffffff'/><line x1='0' y1='586' x2='1180' y2='586' stroke='#e5e7eb'/><rect x='112' y='596' width='104' height='34' rx='8' fill='#ffffff' stroke='#ff4f1a' stroke-width='1'/><text x='164' y='618' font-size='13' fill='#c2410c' font-weight='bold' text-anchor='middle' font-family='Geist,Inter,-apple-system,Helvetica,Arial,sans-serif'>Cancel</text><rect x='240' y='604' width='18' height='18' rx='4' fill='#ffffff' stroke='#e5e7eb' stroke-width='1'/><text x='268' y='618' font-size='12.5' fill='#374151' font-weight='normal' text-anchor='start' font-family='Geist,Inter,-apple-system,Helvetica,Arial,sans-serif'>Send Email Notification</text><rect x='1004' y='596' width='136' height='34' rx='8' fill='#2563eb'/><text x='1072' y='618' font-size='13' fill='#fff' font-weight='bold' text-anchor='middle' font-family='Geist,Inter,-apple-system,Helvetica,Arial,sans-serif'>Save &amp; Exit</text></svg>